<mxfile host="app.diagrams.net" modified="2024-07-04T21:09:19.544Z" agent="Mozilla/5.0 (Windows NT 10.0; Win64; x64) AppleWebKit/537.36 (KHTML, like Gecko) Chrome/126.0.0.0 Safari/537.36" etag="y3WHENWuCgZmh2GiRgbP" version="24.6.4" type="device">
  <diagram name="Seite-1" id="cBw5K6a6HzLtbjxsEIRC">
    <mxGraphModel dx="1290" dy="618" grid="1" gridSize="10" guides="1" tooltips="1" connect="1" arrows="1" fold="1" page="1" pageScale="1" pageWidth="827" pageHeight="1169" math="0" shadow="0">
      <root>
        <mxCell id="0" />
        <mxCell id="1" parent="0" />
        <mxCell id="L3rGUpWFKfzJzhbfr0cf-1" value="&lt;b style=&quot;text-wrap: nowrap;&quot;&gt;KÃ¤ufer&lt;/b&gt;" style="ellipse;whiteSpace=wrap;html=1;" parent="1" vertex="1">
          <mxGeometry x="40" y="300" width="120" height="100" as="geometry" />
        </mxCell>
        <mxCell id="L3rGUpWFKfzJzhbfr0cf-2" value="&lt;b&gt;Quittung&lt;/b&gt;" style="ellipse;whiteSpace=wrap;html=1;" parent="1" vertex="1">
          <mxGeometry x="40" y="510" width="120" height="100" as="geometry" />
        </mxCell>
        <mxCell id="L3rGUpWFKfzJzhbfr0cf-3" value="&lt;b&gt;Produkt&lt;/b&gt;" style="ellipse;whiteSpace=wrap;html=1;" parent="1" vertex="1">
          <mxGeometry x="330" y="510" width="120" height="100" as="geometry" />
        </mxCell>
        <mxCell id="L3rGUpWFKfzJzhbfr0cf-4" value="&lt;b style=&quot;text-wrap: nowrap;&quot;&gt;Supermarket&lt;/b&gt;" style="ellipse;whiteSpace=wrap;html=1;" parent="1" vertex="1">
          <mxGeometry x="330" y="300" width="120" height="100" as="geometry" />
        </mxCell>
        <mxCell id="L3rGUpWFKfzJzhbfr0cf-5" value="" style="endArrow=classic;html=1;rounded=0;exitX=0.5;exitY=1;exitDx=0;exitDy=0;" parent="1" source="L3rGUpWFKfzJzhbfr0cf-1" target="L3rGUpWFKfzJzhbfr0cf-2" edge="1">
          <mxGeometry width="50" height="50" relative="1" as="geometry">
            <mxPoint x="210" y="490" as="sourcePoint" />
            <mxPoint x="260" y="440" as="targetPoint" />
          </mxGeometry>
        </mxCell>
        <mxCell id="L3rGUpWFKfzJzhbfr0cf-6" value="has receipts" style="edgeLabel;html=1;align=center;verticalAlign=middle;resizable=0;points=[];" parent="L3rGUpWFKfzJzhbfr0cf-5" vertex="1" connectable="0">
          <mxGeometry x="-0.1333" y="3" relative="1" as="geometry">
            <mxPoint as="offset" />
          </mxGeometry>
        </mxCell>
        <mxCell id="L3rGUpWFKfzJzhbfr0cf-7" value="" style="endArrow=classic;html=1;rounded=0;entryX=0;entryY=0.5;entryDx=0;entryDy=0;exitX=1;exitY=0.5;exitDx=0;exitDy=0;" parent="1" source="L3rGUpWFKfzJzhbfr0cf-2" target="L3rGUpWFKfzJzhbfr0cf-3" edge="1">
          <mxGeometry width="50" height="50" relative="1" as="geometry">
            <mxPoint x="250" y="490" as="sourcePoint" />
            <mxPoint x="380" y="440" as="targetPoint" />
          </mxGeometry>
        </mxCell>
        <mxCell id="L3rGUpWFKfzJzhbfr0cf-8" value="" style="endArrow=classic;html=1;rounded=0;exitX=0.5;exitY=1;exitDx=0;exitDy=0;entryX=0.5;entryY=0;entryDx=0;entryDy=0;" parent="1" source="L3rGUpWFKfzJzhbfr0cf-4" target="L3rGUpWFKfzJzhbfr0cf-3" edge="1">
          <mxGeometry width="50" height="50" relative="1" as="geometry">
            <mxPoint x="450" y="490" as="sourcePoint" />
            <mxPoint x="470" y="460" as="targetPoint" />
          </mxGeometry>
        </mxCell>
        <mxCell id="L3rGUpWFKfzJzhbfr0cf-9" value="has many products" style="edgeLabel;html=1;align=center;verticalAlign=middle;resizable=0;points=[];" parent="L3rGUpWFKfzJzhbfr0cf-8" vertex="1" connectable="0">
          <mxGeometry x="-0.1363" y="4" relative="1" as="geometry">
            <mxPoint as="offset" />
          </mxGeometry>
        </mxCell>
        <mxCell id="L3rGUpWFKfzJzhbfr0cf-12" value="&lt;div&gt;&lt;span style=&quot;background-color: initial;&quot;&gt;has many&lt;/span&gt;&lt;/div&gt;&lt;div&gt;products&lt;/div&gt;" style="text;html=1;align=center;verticalAlign=middle;resizable=0;points=[];autosize=1;strokeColor=none;fillColor=none;" parent="1" vertex="1">
          <mxGeometry x="200" y="540" width="80" height="40" as="geometry" />
        </mxCell>
        <mxCell id="L3rGUpWFKfzJzhbfr0cf-15" value="&lt;div style=&quot;text-align: left;&quot;&gt;&lt;span style=&quot;text-wrap: nowrap; background-color: initial;&quot;&gt;id: UUID&lt;/span&gt;&lt;/div&gt;&lt;div&gt;&lt;div style=&quot;text-align: left;&quot;&gt;&lt;span style=&quot;text-wrap: nowrap; background-color: initial;&quot;&gt;first_name: String&lt;/span&gt;&lt;/div&gt;&lt;div style=&quot;text-align: left; text-wrap: nowrap;&quot;&gt;&lt;span style=&quot;background-color: initial;&quot;&gt;first_name&lt;/span&gt;: String&lt;/div&gt;&lt;div style=&quot;text-align: left; text-wrap: nowrap;&quot;&gt;quittungen: Array&amp;lt;Quittung&amp;gt;&lt;br&gt;&lt;/div&gt;&lt;/div&gt;" style="text;html=1;align=center;verticalAlign=middle;whiteSpace=wrap;rounded=0;" parent="1" vertex="1">
          <mxGeometry x="30" y="220" width="160" height="70" as="geometry" />
        </mxCell>
        <mxCell id="L3rGUpWFKfzJzhbfr0cf-16" value="&lt;span style=&quot;color: rgb(0, 0, 0); font-family: Helvetica; font-size: 12px; font-style: normal; font-variant-ligatures: normal; font-variant-caps: normal; font-weight: 400; letter-spacing: normal; orphans: 2; text-align: left; text-indent: 0px; text-transform: none; widows: 2; word-spacing: 0px; -webkit-text-stroke-width: 0px; white-space: nowrap; background-color: rgb(251, 251, 251); text-decoration-thickness: initial; text-decoration-style: initial; text-decoration-color: initial; display: inline !important; float: none;&quot;&gt;id: UUID&lt;/span&gt;&lt;div&gt;kasse: int&lt;br&gt;&lt;div&gt;&lt;span style=&quot;background-color: initial;&quot;&gt;total_price: float&lt;/span&gt;&lt;/div&gt;&lt;div&gt;date: date&lt;/div&gt;&lt;div&gt;&lt;span style=&quot;text-wrap: nowrap;&quot;&gt;product: Array&amp;lt;Produkt&amp;gt;&lt;/span&gt;&lt;br&gt;&lt;/div&gt;&lt;div&gt;&lt;br style=&quot;text-wrap: nowrap;&quot;&gt;&lt;/div&gt;&lt;/div&gt;" style="text;whiteSpace=wrap;html=1;" parent="1" vertex="1">
          <mxGeometry x="80" y="630" width="119" height="70" as="geometry" />
        </mxCell>
        <mxCell id="L3rGUpWFKfzJzhbfr0cf-17" value="&lt;span style=&quot;text-wrap: nowrap;&quot;&gt;id: UUID&lt;/span&gt;&lt;div&gt;&lt;span style=&quot;text-wrap: nowrap;&quot;&gt;name: string&lt;/span&gt;&lt;br style=&quot;text-wrap: nowrap;&quot;&gt;&lt;div style=&quot;text-wrap: nowrap;&quot;&gt;&lt;span style=&quot;background-color: initial;&quot;&gt;price: float&lt;/span&gt;&lt;/div&gt;&lt;div style=&quot;text-wrap: nowrap;&quot;&gt;expiry_date: date&lt;/div&gt;&lt;/div&gt;" style="text;whiteSpace=wrap;html=1;" parent="1" vertex="1">
          <mxGeometry x="369" y="630" width="90" height="70" as="geometry" />
        </mxCell>
        <mxCell id="L3rGUpWFKfzJzhbfr0cf-18" value="&lt;span style=&quot;text-wrap: nowrap;&quot;&gt;id: UUID&lt;/span&gt;&lt;div&gt;&lt;span style=&quot;text-wrap: nowrap;&quot;&gt;name: string&lt;/span&gt;&lt;div style=&quot;text-wrap: nowrap;&quot;&gt;city: string&lt;/div&gt;&lt;div style=&quot;text-wrap: nowrap;&quot;&gt;product: Array&amp;lt;Produkt&amp;gt;&lt;/div&gt;&lt;/div&gt;" style="text;whiteSpace=wrap;html=1;" parent="1" vertex="1">
          <mxGeometry x="350" y="220" width="80" height="70" as="geometry" />
        </mxCell>
      </root>
    </mxGraphModel>
  </diagram>
</mxfile>
